arm26_optimize_states
version=1
nRows=34
nColumns=17
inDegrees=yes

# SIMM Motion File Header:
name arm26_optimize_states
datacolumns 17
datarows 34
otherdata 1
range 0.78797850 0.82953869
endheader
time	r_shoulder_elev	r_elbow_flex	r_shoulder_elev_u	r_elbow_flex_u	TRIlong.activation	TRIlong.fiber_length	TRIlat.activation	TRIlat.fiber_length	TRImed.activation	TRImed.fiber_length	BIClong.activation	BIClong.fiber_length	BICshort.activation	BICshort.fiber_length	BRA.activation	BRA.fiber_length
      0.78797850	    -43.46577149	   -110.52727873	    183.86434656	   -149.78856964	      0.02000000	      0.14133791	      0.02000000	      0.09856624	      0.10000000	      0.09281488	      0.10000000	      0.11599087	      0.02000000	      0.12470377	      0.02000000	      0.05407066
      0.78928688	    -43.22402758	   -110.72140041	    185.66771337	   -146.94610707	      0.02000000	      0.14147721	      0.02000000	      0.09863082	      0.10000000	      0.09287960	      0.10000000	      0.11578362	      0.02000000	      0.12440649	      0.02000000	      0.05399158
      0.79059525	    -42.97992706	   -110.91179192	    187.46614940	   -144.08559571	      0.02000000	      0.14162511	      0.02000000	      0.09869410	      0.10000000	      0.09294305	      0.10000000	      0.11557797	      0.02000000	      0.12411089	      0.02000000	      0.05391406
      0.79242356	    -42.63488885	   -111.17155377	    189.97500779	   -140.06948021	      0.02000000	      0.14182296	      0.02000000	      0.09878036	      0.10000000	      0.09302955	      0.10000000	      0.11529169	      0.02000000	      0.12370072	      0.02000000	      0.05380834
      0.79365160	    -42.40055938	   -111.34189940	    191.65370101	   -137.35324384	      0.02000000	      0.14196762	      0.02000000	      0.09883688	      0.10000000	      0.09308625	      0.10000000	      0.11510032	      0.02000000	      0.12342716	      0.02000000	      0.05373904
      0.79487965	    -42.16416980	   -111.50890478	    193.33066284	   -134.63089104	      0.02000000	      0.14210048	      0.02000000	      0.09889225	      0.10000000	      0.09314182	      0.10000000	      0.11490988	      0.02000000	      0.12315518	      0.02000000	      0.05367111
      0.79640993	    -41.86672491	   -111.71232156	    195.41292807	   -131.22084024	      0.02000000	      0.14227524	      0.02000000	      0.09895966	      0.10000000	      0.09320949	      0.10000000	      0.11467411	      0.02000000	      0.12281853	      0.02000000	      0.05358840
      0.79783356	    -41.58715308	   -111.89686678	    197.34532159	   -128.03819086	      0.02000000	      0.14243041	      0.02000000	      0.09902079	      0.10000000	      0.09327087	      0.10000000	      0.11445648	      0.02000000	      0.12250764	      0.02000000	      0.05351337
      0.79925719	    -41.30483529	   -112.07687119	    199.26908838	   -124.83870380	      0.02000000	      0.14259759	      0.02000000	      0.09908039	      0.10000000	      0.09333075	      0.10000000	      0.11424068	      0.02000000	      0.12219903	      0.02000000	      0.05344020
      0.80068083	    -41.01978306	   -112.25231361	    201.18871624	   -121.63348603	      0.02000000	      0.14274999	      0.02000000	      0.09913847	      0.10000000	      0.09338912	      0.10000000	      0.11402686	      0.02000000	      0.12189272	      0.02000000	      0.05336888
      0.80193975	    -40.76543859	   -112.40364819	    202.87688299	   -118.78312191	      0.02000000	      0.14290040	      0.02000000	      0.09918856	      0.10000000	      0.09343949	      0.10000000	      0.11383951	      0.02000000	      0.12162381	      0.02000000	      0.05330737
      0.80319867	    -40.50897197	   -112.55139062	    204.56109722	   -115.92903195	      0.02000000	      0.14303703	      0.02000000	      0.09923746	      0.10000000	      0.09348869	      0.10000000	      0.11365388	      0.02000000	      0.12135677	      0.02000000	      0.05324730
      0.80445759	    -40.25039010	   -112.69553284	    206.23644880	   -113.06204459	      0.02000000	      0.14318419	      0.02000000	      0.09928518	      0.10000000	      0.09353671	      0.10000000	      0.11347003	      0.02000000	      0.12109162	      0.02000000	      0.05318869
      0.80571651	    -39.98970325	   -112.83606118	    207.90576982	   -110.18910647	      0.02000000	      0.14332455	      0.02000000	      0.09933172	      0.10000000	      0.09358357	      0.10000000	      0.11328802	      0.02000000	      0.12082841	      0.02000000	      0.05313153
      0.80723020	    -39.67348752	   -113.00022998	    209.90086959	   -106.72006105	      0.02000000	      0.14350360	      0.02000000	      0.09938612	      0.10000000	      0.09363837	      0.10000000	      0.11307169	      0.02000000	      0.12051453	      0.02000000	      0.05306473
      0.80839670	    -39.42774263	   -113.12315844	    211.43212014	   -104.04232680	      0.02000000	      0.14363148	      0.02000000	      0.09942688	      0.10000000	      0.09367946	      0.10000000	      0.11290689	      0.02000000	      0.12027460	      0.02000000	      0.05301468
      0.80956321	    -39.18021661	   -113.24295767	    212.95415445	   -101.35405838	      0.02000000	      0.14376837	      0.02000000	      0.09946663	      0.10000000	      0.09371955	      0.10000000	      0.11274380	      0.02000000	      0.12003642	      0.02000000	      0.05296589
      0.81110797	    -38.84970437	   -113.39676966	    214.95907507	    -97.78651150	      0.02000000	      0.14394249	      0.02000000	      0.09951773	      0.10000000	      0.09377111	      0.10000000	      0.11253049	      0.02000000	      0.11972372	      0.02000000	      0.05290318
      0.81224384	    -38.60470688	   -113.50634735	    216.42230059	    -95.15222798	      0.02000000	      0.14408010	      0.02000000	      0.09955418	      0.10000000	      0.09380792	      0.10000000	      0.11237561	      0.02000000	      0.11949579	      0.02000000	      0.05285848
      0.81337971	    -38.35805139	   -113.61293046	    217.87899061	    -92.51505238	      0.02000000	      0.14420815	      0.02000000	      0.09958968	      0.10000000	      0.09384379	      0.10000000	      0.11222243	      0.02000000	      0.11926959	      0.02000000	      0.05281495
      0.81451558	    -38.10974661	   -113.71651361	    219.32589899	    -89.86929423	      0.02000000	      0.14434256	      0.02000000	      0.09962423	      0.10000000	      0.09387873	      0.10000000	      0.11207097	      0.02000000	      0.11904514	      0.02000000	      0.05277261
      0.81607896	    -37.76530961	   -113.85416092	    221.30408929	    -86.22054265	      0.02000000	      0.14452110	      0.02000000	      0.09967024	      0.10000000	      0.09392529	      0.10000000	      0.11186535	      0.02000000	      0.11873912	      0.02000000	      0.05271627
      0.81711856	    -37.53456321	   -113.94253042	    222.60812123	    -83.78484945	      0.02000000	      0.14464862	      0.02000000	      0.09969985	      0.10000000	      0.09395528	      0.10000000	      0.11173045	      0.02000000	      0.11853751	      0.02000000	      0.05268004
      0.81815816	    -37.30246481	   -114.02836629	    223.90541369	    -81.34703819	      0.02000000	      0.14476822	      0.02000000	      0.09972867	      0.10000000	      0.09398450	      0.10000000	      0.11159704	      0.02000000	      0.11833743	      0.02000000	      0.05264480
      0.81949295	    -37.00249233	   -114.13485419	    225.55762744	    -78.20792197	      0.02000000	      0.14492790	      0.02000000	      0.09976453	      0.10000000	      0.09402088	      0.10000000	      0.11142794	      0.02000000	      0.11808281	      0.02000000	      0.05260101
      0.82071490	    -36.72595558	   -114.22866128	    227.05844978	    -75.32931123	      0.02000000	      0.14506956	      0.02000000	      0.09979622	      0.10000000	      0.09405307	      0.10000000	      0.11127531	      0.02000000	      0.11785199	      0.02000000	      0.05256235
      0.82193684	    -36.44759278	   -114.31894657	    228.54538544	    -72.44185849	      0.02000000	      0.14521934	      0.02000000	      0.09982684	      0.10000000	      0.09408419	      0.10000000	      0.11112477	      0.02000000	      0.11762337	      0.02000000	      0.05252506
      0.82303609	    -36.19563488	   -114.39714910	    229.87353931	    -69.84224360	      0.02000000	      0.14534587	      0.02000000	      0.09985346	      0.10000000	      0.09411129	      0.10000000	      0.11099116	      0.02000000	      0.11741961	      0.02000000	      0.05249268
      0.82413533	    -35.94222337	   -114.47249056	    231.18947553	    -67.23520178	      0.02000000	      0.14548040	      0.02000000	      0.09987922	      0.10000000	      0.09413753	      0.10000000	      0.11085926	      0.02000000	      0.11721768	      0.02000000	      0.05246141
      0.82523457	    -35.68737109	   -114.54496434	    232.49538563	    -64.62568321	      0.02000000	      0.14560960	      0.02000000	      0.09990411	      0.10000000	      0.09416293	      0.10000000	      0.11072909	      0.02000000	      0.11701759	      0.02000000	      0.05243124
      0.82633382	    -35.43108976	   -114.61456678	    233.78903674	    -62.01021318	      0.02000000	      0.14574402	      0.02000000	      0.09992814	      0.10000000	      0.09418747	      0.10000000	      0.11060065	      0.02000000	      0.11681938	      0.02000000	      0.05240218
      0.82767581	    -35.11629427	   -114.69563933	    235.35391355	    -58.81429692	      0.02000000	      0.14590194	      0.02000000	      0.09995631	      0.10000000	      0.09421629	      0.10000000	      0.11044621	      0.02000000	      0.11657996	      0.02000000	      0.05236819
      0.82860725	    -34.89657531	   -114.74938585	    236.42822023	    -56.59029308	      0.02000000	      0.14601905	      0.02000000	      0.09997511	      0.10000000	      0.09423556	      0.10000000	      0.11034055	      0.02000000	      0.11641547	      0.02000000	      0.05234557
      0.82953869	    -34.67585938	   -114.80106042	    237.49481651	    -54.36579265	      0.02000000	      0.14613028	      0.02000000	      0.09999331	      0.10000000	      0.09425422	      0.10000000	      0.11023615	      0.02000000	      0.11625237	      0.02000000	      0.05232374
